PathFileType	4	(X/Y/Z)	/Users/itak/Documents/Research/Walk-IL/dataset/trc/00299_00010.trc
DataRate	CameraRate	NumFrames	NumMarkers	Units	OrigDataRate	OrigDataStartFrame	OrigNumFrames
100.000000	100.000000	4	53	mm	100.000000	0	364
Frame#	Time	RPSI			LPSI			L3			STRN			T10			C7			CLAV			RBAK			LBAK			LSHO			LUPA			LAEL			LAOL			LWPS			LFRA			LIFD			LHPS			LHTS			RSHO			RUPA			RAEL			RAOL			RWTS			RWPS			RFRA			RIFD			RHTS			RHPS			RBHD			LFHD			RFHD			LBHD			LHIP			RHIP			RASI			LASI			LKNE			LTHI			LANK			LTIP			LTOE			LMT1			LMT5			LHEE			RKNE			RTHI			RTIP			RTOE			RMT1			RMT5			RHEE			LWTS			RANK			
		X1	Y1	Z1	X2	Y2	Z2	X3	Y3	Z3	X4	Y4	Z4	X5	Y5	Z5	X6	Y6	Z6	X7	Y7	Z7	X8	Y8	Z8	X9	Y9	Z9	X10	Y10	Z10	X11	Y11	Z11	X12	Y12	Z12	X13	Y13	Z13	X14	Y14	Z14	X15	Y15	Z15	X16	Y16	Z16	X17	Y17	Z17	X18	Y18	Z18	X19	Y19	Z19	X20	Y20	Z20	X21	Y21	Z21	X22	Y22	Z22	X23	Y23	Z23	X24	Y24	Z24	X25	Y25	Z25	X26	Y26	Z26	X27	Y27	Z27	X28	Y28	Z28	X29	Y29	Z29	X30	Y30	Z30	X31	Y31	Z31	X32	Y32	Z32	X33	Y33	Z33	X34	Y34	Z34	X35	Y35	Z35	X36	Y36	Z36	X37	Y37	Z37	X38	Y38	Z38	X39	Y39	Z39	X40	Y40	Z40	X41	Y41	Z41	X42	Y42	Z42	X43	Y43	Z43	X44	Y44	Z44	X45	Y45	Z45	X46	Y46	Z46	X47	Y47	Z47	X48	Y48	Z48	X49	Y49	Z49	X50	Y50	Z50	X51	Y51	Z51	X52	Y52	Z52	X53	Y53	Z53	

1	0	-1397.657470703125	969.6639404296875	689.32958984375	-1361.238525390625	946.1167602539062	519.216064453125	-1355.171875	1033.112060546875	614.1212768554688	-1091.9677734375	1178.8349609375	630.7017822265625	-1359.813598632812	1148.12841796875	617.9442749023438	-1285.906616210938	1385.105102539062	594.2250366210938	-1142.447265625	1284.976684570312	614.2696533203125	-1360.806884765625	1262.042846679688	673.6528930664062	-1302.231323242188	1343.641479492188	491.8078308105469	-1209.86181640625	1335.785888671875	441.227294921875	-1268.421752929688	1227.446044921875	375.0870971679688	-1324.566162109375	1033.84130859375	367.7527160644531	-1370.72900390625	1032.904052734375	440.3069152832031	-1369.67626953125	799.95751953125	345.7061157226562	-1350.021850585938	931.5405883789062	355.9848022460938	-1390.629272460938	622.0968627929688	398.7525329589844	-1399.079833984375	716.1631469726562	348.4410400390625	-1341.637329101562	695.20068359375	376.4801025390625	-1228.762329101562	1362.174926757812	758.632568359375	-1243.488525390625	1305.9306640625	828.0531616210938	-1257.488647460938	1038.105834960938	889.9105224609375	-1303.725952148438	1030.334594726562	808.076416015625	-1108.442749023438	856.4180908203125	808.01708984375	-1148.548950195312	824.1856079101562	876.8348999023438	-1221.796875	973.6073608398438	894.6238403320312	-1045.91015625	682.0335693359375	775.9662475585938	-1047.751953125	751.8922729492188	804.896484375	-1093.834228515625	726.4661254882812	851.1072387695312	-1246.208129882812	1547.480590820312	654.767333984375	-1085.85888671875	1555.234252929688	516.072509765625	-1077.815673828125	1566.136962890625	607.6334838867188	-1259.968994140625	1521.593627929688	511.4979553222656	-1272.419067382812	896.7926635742188	444.8438720703125	-1326.677978515625	912.6136474609375	813.3214111328125	-1193.510620117188	900.7615966796875	776.2454223632812	-1150.250366210938	899.3192138671875	526.7215576171875	-1032.931640625	489.9161987304688	529.6390991210938	-1101.900024414062	606.8657836914062	487.5210266113281	-1006.183715820312	45.41787338256836	566.8965454101562	-1021.052062988281	257.6236877441406	536.326416015625	-807.5020141601562	72.95137786865234	631.0247192382812	-872.4755859375	48.03840255737305	668.471923828125	-884.4761352539062	58.39753723144531	557.5266723632812	-1052.69873046875	34.47690963745117	624.8355102539062	-1411.198364257812	452.5545654296875	766.2498779296875	-1316.368408203125	695.8991088867188	812.5626831054688	-1448.0634765625	332.7449645996094	743.764892578125	-1439.4091796875	45.37028503417969	672.3956298828125	-1489.862426757812	46.08368682861328	625.4354248046875	-1537.059326171875	39.39207077026367	735.1453857421875	-1660.983764648438	45.75833892822266	676.5580444335938	-1322.432983398438	793.6537475585938	400.1935119628906	-1635.637939453125	63.71844482421875	701.2673950195312	
2	0.01	-1391.748046875	969.823974609375	689.2864379882812	-1355.631591796875	946.5914306640625	519.1255493164062	-1349.500610351562	1033.130615234375	614.0171508789062	-1086.352172851562	1178.877563476562	629.9691162109375	-1354.196655273438	1148.037109375	617.5159912109375	-1280.648193359375	1385.078979492188	593.1967163085938	-1136.674682617188	1285.114868164062	613.2785034179688	-1355.198608398438	1262.067260742188	673.11474609375	-1296.955932617188	1343.38427734375	490.9332885742188	-1204.650756835938	1335.39892578125	440.2655639648438	-1263.06689453125	1226.67236328125	374.4520263671875	-1318.924438476562	1033.149291992188	367.4924621582031	-1364.874389648438	1032.0703125	440.0805053710938	-1364.830688476562	799.4087524414062	345.6011962890625	-1344.524291992188	930.8907470703125	355.7477111816406	-1386.253662109375	621.6521606445312	398.5615844726562	-1394.548217773438	715.8310546875	348.435791015625	-1337.268432617188	694.58203125	376.1695556640625	-1223.252685546875	1362.662231445312	757.562255859375	-1237.95458984375	1306.506591796875	827.1065673828125	-1252.07666015625	1038.85595703125	889.3016967773438	-1298.227783203125	1030.851806640625	807.2539672851562	-1104.28369140625	855.7796020507812	808.234619140625	-1144.600463867188	824.2609252929688	877.3080444335938	-1216.646484375	974.1212158203125	894.2708129882812	-1042.380859375	680.866943359375	777.859375	-1043.434814453125	751.3150634765625	806.19970703125	-1090.146118164062	726.1533813476562	852.3732299804688	-1241.896850585938	1547.6806640625	653.177001953125	-1081.474487304688	1555.652587890625	514.6013793945312	-1073.489013671875	1566.898803710938	606.1392211914062	-1255.331787109375	1521.102905273438	510.067138671875	-1266.636596679688	897.5185546875	444.7720642089844	-1320.98388671875	912.5819091796875	813.2191772460938	-1187.51171875	900.6798706054688	776.1653442382812	-1144.49951171875	899.558837890625	526.5261840820312	-1026.293579101562	490.8536071777344	529.5972900390625	-1095.394775390625	608.21337890625	487.3895568847656	-1005.389587402344	45.77580642700195	566.8947143554688	-1016.394836425781	258.1122436523438	536.3922729492188	-806.547607421875	70.34068298339844	632.4773559570312	-872.0865478515625	46.40899658203125	669.4824829101562	-883.4216918945312	57.23178863525391	558.4052124023438	-1052.13134765625	35.16184616088867	624.6591186523438	-1407.220458984375	453.0542297363281	766.29638671875	-1311.33203125	695.8421630859375	812.3394775390625	-1445.0576171875	333.4662475585938	743.974853515625	-1439.061157226562	45.35049057006836	672.4141235351562	-1489.51806640625	46.43326950073242	625.4845581054688	-1536.407592773438	39.97482299804688	735.4008178710938	-1658.877319335938	50.97074127197266	676.00048828125	-1317.323608398438	792.88134765625	399.891845703125	-1634.460205078125	65.74917602539062	701.6932373046875	
3	0.02	-1384.174560546875	970.11669921875	689.2680053710938	-1348.458618164062	947.251953125	519.0285034179688	-1342.28369140625	1033.228759765625	613.9096069335938	-1079.206420898438	1179.105712890625	628.9759521484375	-1347.065063476562	1148.020751953125	617.0138549804688	-1274.022216796875	1385.132690429688	591.8851318359375	-1129.4091796875	1285.43798828125	611.9957275390625	-1348.093383789062	1262.197143554688	672.4357299804688	-1290.302368164062	1343.1328125	489.8083190917969	-1198.07275390625	1335.046752929688	439.0372619628906	-1256.257934570312	1225.861328125	373.6184387207031	-1311.688598632812	1032.40185546875	367.1173095703125	-1357.431518554688	1031.154418945312	439.7263488769531	-1358.41064453125	798.7943115234375	345.4306640625	-1337.410400390625	930.1778564453125	355.4150390625	-1380.485229492188	621.197021484375	398.4095458984375	-1388.515258789062	715.451171875	348.3775634765625	-1331.421264648438	693.8822631835938	375.8667297363281	-1216.260375976562	1363.40283203125	756.1677856445312	-1230.889038085938	1307.377319335938	825.88427734375	-1245.223876953125	1039.96728515625	888.5269165039062	-1291.220092773438	1031.644409179688	806.2255859375	-1099.10302734375	855.0584106445312	808.534912109375	-1139.644653320312	824.503173828125	877.9552001953125	-1210.138549804688	974.9258422851562	893.8275756835938	-1038.072631835938	679.4862060546875	780.24560546875	-1038.286743164062	750.5894775390625	807.8572998046875	-1085.642578125	725.8824462890625	854.0338134765625	-1236.453735351562	1547.988037109375	651.1502685546875	-1075.932006835938	1556.28564453125	512.7345581054688	-1068.034423828125	1567.947509765625	604.2338256835938	-1249.478637695312	1520.58447265625	508.2140197753906	-1259.314331054688	898.471923828125	444.6298217773438	-1313.668212890625	912.6666870117188	813.1254272460938	-1179.842895507812	900.6766357421875	775.9905395507812	-1137.178833007812	899.9588623046875	526.2083129882812	-1018.212890625	491.8883666992188	529.5203857421875	-1087.349487304688	609.8228759765625	487.1558532714844	-1004.382995605469	46.21161651611328	566.8980712890625	-1010.760131835938	258.59228515625	536.493408203125	-805.3624877929688	67.14736175537109	634.2578125	-871.6572875976562	44.41373062133789	670.718017578125	-882.1226196289062	55.81196212768555	559.5374755859375	-1051.428833007812	35.9674072265625	624.4313354492188	-1402.05712890625	453.742431640625	766.3955688476562	-1304.830688476562	695.8502197265625	812.0802001953125	-1441.115478515625	334.4569396972656	744.3111572265625	-1438.632934570312	45.30789184570312	672.44482421875	-1489.0654296875	46.90911102294922	625.5967407226562	-1535.53125	40.70383453369141	735.741943359375	-1656.211059570312	57.57027816772461	675.3473510742188	-1310.650634765625	792.0250854492188	399.5143737792969	-1632.872436523438	68.17621612548828	702.2626953125	
4	0.03	-1375.180419921875	970.5762939453125	689.2850952148438	-1339.940185546875	948.1083984375	518.931884765625	-1333.765380859375	1033.43701171875	613.8020629882812	-1070.789428710938	1179.595581054688	627.7298583984375	-1338.670532226562	1148.119995117188	616.4649047851562	-1266.292358398438	1385.306518554688	590.3316650390625	-1120.942626953125	1286.007080078125	610.454833984375	-1339.757568359375	1262.466552734375	671.63623046875	-1282.533325195312	1342.932861328125	488.4641723632812	-1190.384643554688	1334.810791015625	437.5807189941406	-1248.232666015625	1225.1201171875	372.5977172851562	-1303.085693359375	1031.685424804688	366.6166076660156	-1348.6611328125	1030.258056640625	439.2235717773438	-1350.51318359375	798.17431640625	345.1852416992188	-1328.87158203125	929.4786987304688	354.9814453125	-1373.4091796875	620.7976684570312	398.335205078125	-1381.0537109375	715.0662231445312	348.2534484863281	-1324.1611328125	693.1703491210938	375.6213989257812	-1208.046142578125	1364.423950195312	754.4842529296875	-1222.534301757812	1308.574829101562	824.4228515625	-1237.180053710938	1041.466430664062	887.6178588867188	-1282.951293945312	1032.744995117188	805.0416259765625	-1093.1337890625	854.3260498046875	808.9199829101562	-1133.883544921875	824.9734497070312	878.7763061523438	-1202.520629882812	976.0661010742188	893.318359375	-1033.219116210938	678.0050048828125	783.0318603515625	-1032.625122070312	749.754638671875	809.8130493164062	-1080.5625	725.722412109375	856.0531005859375	-1230.087036132812	1548.425659179688	648.7598876953125	-1069.440063476562	1557.1611328125	510.5411376953125	-1061.666259765625	1569.286254882812	601.986328125	-1242.634887695312	1520.115234375	505.99560546875	-1250.713623046875	899.6285400390625	444.3895874023438	-1304.940795898438	912.9158325195312	813.057373046875	-1170.749755859375	900.8062133789062	775.696533203125	-1128.533203125	900.5498657226562	525.7506103515625	-1009.155700683594	492.8942260742188	529.3958129882812	-1078.179443359375	611.5419921875	486.8113403320312	-1003.228759765625	46.69851684570312	566.9132080078125	-1004.499267578125	258.989990234375	536.6273803710938	-804.0055541992188	63.56831741333008	636.2010498046875	-871.2166137695312	42.19605255126953	672.067626953125	-880.6715087890625	54.23408889770508	560.830810546875	-1050.644775390625	36.83463668823242	624.1763305664062	-1395.812866210938	454.6173400878906	766.5594482421875	-1297.035034179688	695.9680786132812	811.7993774414062	-1436.2998046875	335.722412109375	744.795654296875	-1438.1494140625	45.23793792724609	672.4944458007812	-1488.502563476562	47.51373291015625	625.785400390625	-1534.454711914062	41.53710556030273	736.1652221679688	-1653.075561523438	65.31666564941406	674.6409301757812	-1302.557495117188	791.17822265625	399.0814208984375	-1630.911499023438	70.85094451904297	702.9594116210938	
